<svg width="87" height="78" viewBox="0 0 87 78" fill="none" xmlns="http://www.w3.org/2000/svg">
<g clip-path="url(#clip0_821_6623)">
<path d="M69.2514 16.3473C69.702 16.122 70.0963 15.961 70.1607 15.9047C70.217 15.8484 69.5974 15.108 68.8168 14.3114L67.3604 12.8308L68.6157 11.487C69.694 10.3121 69.8066 10.0868 69.4204 9.68445C69.0261 9.29016 68.8007 9.39477 67.6098 10.465L66.2418 11.6962L64.898 10.3282C63.4415 8.84758 62.4276 8.61422 62.1943 9.74883C62.0253 10.2558 62.2989 10.6501 63.3691 11.6157L64.7129 12.7584L62.838 14.3838C60.1101 16.7335 61.0114 16.9669 64.4715 14.8988L65.7751 14.1746L67.119 15.4219C68.3582 16.5565 68.5754 16.6772 69.2594 16.3392L69.2514 16.3473Z" fill="#071448" fill-opacity="0.35"/>
<path d="M22.491 51.0374C21.7104 49.3395 21.9438 48.6636 23.5854 48.052C24.72 47.7221 24.9453 47.0461 24.2693 46.5875C23.5934 46.1288 22.2979 46.515 21.3242 47.4726C20.6402 48.1405 20.5275 48.1405 20.085 47.4646C19.8596 47.0139 19.5861 46.3863 19.5861 46.0483C19.5378 45.2034 19.0308 44.5757 18.4675 44.6803C17.8479 44.8493 17.9445 46.3139 18.6687 47.8428C19.3929 49.259 19.3366 49.3153 18.4836 50.4982C17.9123 51.1742 17.341 52.0674 17.172 52.5743C16.4317 54.2078 17.2203 54.1032 18.8699 52.4778C20.1815 51.0696 20.4068 50.965 20.8494 51.3029C21.1311 51.4719 21.5817 52.1559 21.7426 52.7755C21.9599 53.6768 22.1852 53.9101 22.5795 53.9664C23.3681 53.9664 23.2635 52.9525 22.4829 51.0293L22.491 51.0374Z" fill="#071448" fill-opacity="0.35"/>
<path d="M54.6463 21.3282L53.3025 19.9602L54.2681 19.0107C54.7188 18.4474 55.5717 17.6106 56.143 17.1599C57.2213 16.0977 57.4547 15.3091 56.7787 14.9631C56.3845 14.7941 55.9338 15.1241 54.4532 16.5806C53.4313 17.5864 52.5783 18.3187 52.4656 18.206C52.353 18.0934 52.2966 17.5864 52.192 17.0231C52.0311 15.8322 51.4678 15.1563 50.7919 15.3735C50.2849 15.6471 50.0435 17.5703 50.4941 18.0209C50.9448 18.4716 50.8723 20.1131 50.4217 20.5638C50.1401 20.8454 49.7941 21.4087 49.5688 21.8593C48.9411 23.1549 49.8987 23.5572 51.1459 22.4306C52.3369 21.4811 52.2242 21.4811 54.5256 23.8066C55.1935 24.6033 55.3625 24.6596 55.8775 24.1527C56.5052 23.5331 56.3362 23.0261 54.6544 21.3202L54.6463 21.3282Z" fill="#071448" fill-opacity="0.35"/>
<path d="M31.7207 63.5823C30.9885 63.0673 30.4895 62.335 30.3769 61.651C30.3206 61.0314 30.3769 60.9751 32.0265 60.2509C34.1187 59.3013 34.175 59.2531 33.6198 58.6817C33.1128 58.1667 31.8173 58.3277 30.6263 59.1726C29.5481 59.8968 29.2664 59.6152 28.8882 57.523C28.51 55.6561 27.9467 54.8595 27.4398 55.3664C27.0938 55.7044 27.3593 58.4725 27.8663 59.4381C28.2042 60.1141 27.4076 61.0153 25.589 62.1338C24.905 62.5845 24.4544 63.027 24.2774 63.4213C24.1003 64.1536 24.8326 64.556 25.4602 64.1617C25.7419 63.9927 26.3132 63.5501 26.7638 63.2121C27.8421 62.1499 28.8641 61.9246 29.1377 62.5523C29.7492 64.0812 30.2562 64.7088 30.8195 64.8215C31.5517 64.8859 32.1231 63.9846 31.7288 63.5823H31.7207Z" fill="#071448" fill-opacity="0.35"/>
<path d="M44.8371 61.4099C45.4004 61.9812 44.9418 62.7618 43.3002 63.9366C41.9966 64.8861 41.6506 65.2241 41.7069 65.6184C41.9242 66.407 42.1012 66.3507 43.2358 65.5701C45.1671 64.2263 45.505 64.2343 46.6799 65.6506C48.08 67.4129 48.6433 67.6382 49.3273 66.9703C49.8423 66.4633 49.8423 66.3507 49.11 65.8357C48.2651 65.3207 47.2593 63.6228 47.6053 63.2848C47.7179 63.1722 48.5709 62.6733 49.4802 62.11C50.3332 61.6111 51.2344 61.0478 51.4114 60.8788C51.7494 60.5408 50.9689 59.6315 50.3492 59.8005C49.6089 59.9615 47.7984 60.8547 47.3478 61.3053C47.1225 61.5306 46.8408 61.5869 46.7282 61.4743C46.3339 61.0719 45.6177 58.5291 45.843 58.3038C46.181 57.9658 45.2878 57.1692 44.7808 57.3382C44.2739 57.3945 44.3624 60.8949 44.8693 61.4018L44.8371 61.4099Z" fill="#071448" fill-opacity="0.35"/>
<path d="M77.8695 27.138C78.5535 26.4701 78.6099 26.3011 78.1592 25.9551C77.427 25.5528 76.9844 24.4262 77.3787 24.0319C77.5477 23.8629 78.0627 23.702 78.457 23.6457C79.3019 23.5974 79.5916 22.7525 78.7467 22.3501C78.465 22.1811 77.6201 22.2294 76.8798 22.503L75.5762 23.0019L74.176 21.5776C72.6069 19.8717 72.2126 19.7027 71.7539 20.4913C71.4723 20.8856 71.6332 21.2799 71.9712 21.7386C72.3655 22.1409 72.8644 22.6479 73.0897 22.9858C73.7656 23.6698 73.3633 24.1687 70.6998 26.0195C69.5088 26.8564 68.5432 27.5886 68.4869 27.7576C68.2535 28.4336 69.1628 28.3289 70.5791 27.4921C71.432 26.9932 72.7356 26.2609 73.4679 25.8746L74.7715 25.1504L76.067 26.3414C77.2419 27.4196 77.4672 27.5404 77.8695 27.1461V27.138Z" fill="#071448" fill-opacity="0.35"/>
<path d="M39.4781 77.013C39.985 76.6187 39.9931 76.5061 39.5424 76.0555C38.8102 75.4278 38.5848 75.2025 38.4802 74.6392C38.3676 74.1886 38.7136 73.9633 40.1218 73.577C42.1013 72.9655 42.7853 72.2976 42.1094 71.6136C41.7151 71.2112 39.8482 71.5975 38.094 72.4344C37.579 72.716 37.5227 72.6597 37.0801 71.5251C36.7984 70.9055 36.5812 69.7709 36.4202 69.0386C36.203 67.4534 35.5351 66.6567 34.9074 67.2763C34.4488 67.727 34.9316 72.3056 35.4868 72.8689C35.7121 73.0942 35.5995 73.3195 35.3098 73.4885C31.9059 75.2669 30.7794 75.9428 30.6023 76.3371C30.2 77.0694 30.6506 77.182 31.8416 76.5705C32.4612 76.2969 33.7084 75.7336 34.7304 75.4037L36.4846 74.7921L37.6595 76.0957C38.778 77.343 38.947 77.3993 39.462 77.013H39.4781Z" fill="#071448" fill-opacity="0.35"/>
<path d="M37.257 12.7987C36.75 12.2917 35.9614 12.2837 34.8268 12.8389C34.0329 13.2466 33.2255 13.0347 32.4047 12.2032C30.8356 10.6099 30.3206 11.1169 31.2701 13.3298L32.0507 15.0277L30.2884 16.5405C29.2664 17.4337 28.5825 18.2223 28.5261 18.5039C28.5261 19.4052 28.856 19.3005 30.9563 17.9004L33.0002 16.4439L34.006 17.4659C34.7946 18.2625 35.0682 18.4315 35.4706 18.1498C36.2109 17.6429 36.0982 17.1923 35.2614 16.114C34.5291 15.3737 34.5371 15.1484 35.1004 14.5851C35.4384 14.2471 35.8971 14.0298 36.066 14.0862C36.6293 14.2069 37.5949 13.1366 37.257 12.7987Z" fill="#071448" fill-opacity="0.35"/>
<path d="M74.7234 49.9835C75.0613 49.6455 74.9567 49.3075 74.0555 48.1729C73.3876 47.3763 72.8806 46.636 72.9369 46.475C72.8806 46.1934 74.7555 45.4692 75.5441 45.4772C76.3891 45.4289 76.9604 44.415 76.4051 43.8437C75.9545 43.3931 73.637 43.8839 72.953 44.5518C72.3254 45.1714 71.7138 44.5438 71.4402 43.0149C71.2793 41.486 70.7804 40.8664 70.2091 41.4296C69.8711 41.7676 70.1286 44.761 70.5229 45.1553C70.8608 45.4933 70.4022 45.8313 68.0847 46.8854C66.9501 47.4406 66.0488 48.0039 66.0408 48.1166C66.0971 48.6235 66.942 48.5753 68.9216 47.851C70.9011 47.1268 71.1264 47.1349 71.6897 47.8108C73.4841 49.7421 74.3291 50.3697 74.7234 49.9754V49.9835Z" fill="#071448" fill-opacity="0.35"/>
<path d="M84.2588 34.2918C84.4841 34.0665 84.9991 34.1228 85.3854 34.2918C86.2303 34.6941 86.5119 34.5252 86.52 33.7366C86.528 32.3847 84.5002 32.0306 82.9633 33.0928C82.2793 33.5434 81.9413 33.5354 81.7804 33.1411C81.1688 31.7248 80.6618 31.2098 79.9859 31.5478C79.1893 31.9904 79.1329 32.3927 79.8008 33.4066C80.3641 34.2033 80.3561 34.4286 79.7928 34.8792C79.3985 35.1609 78.8835 35.5471 78.6582 35.6598C78.3765 35.7161 77.6926 36.1587 77.0729 36.4403C76.1636 36.9956 76.051 37.1082 76.4453 37.3979C76.6143 37.5669 77.8052 37.2933 79.0444 36.7381L81.1929 35.7322L82.7621 37.4381C83.7116 38.5164 84.3876 39.0877 84.5002 38.9751C84.6129 38.8624 84.9589 38.6371 85.1842 38.5245C85.5785 38.3555 85.4095 37.9612 84.3473 36.6576C83.2851 35.354 83.1161 34.9516 83.5104 34.7907C83.7358 34.6781 84.0818 34.4527 84.2508 34.2918H84.2588Z" fill="#071448" fill-opacity="0.35"/>
<path d="M45.7142 23.3002C45.2636 22.9542 44.8693 23.0106 43.7347 23.7992L42.4311 24.7487L41.3689 23.4451C40.532 22.3668 40.2504 22.1898 39.7354 22.3588C39.0594 22.6887 39.164 23.1474 40.1699 24.9579C40.9505 26.2052 40.8941 26.2615 40.0975 27.3881C39.5825 28.0077 38.7939 28.9009 38.3352 29.3515C37.8765 29.8021 37.4823 30.3091 37.5386 30.4781C37.4823 30.985 38.0375 31.331 38.5525 31.162C38.8341 30.9931 39.7434 30.2125 40.5964 29.3676L42.1333 27.8548L43.6462 29.3917C44.3784 30.2447 45.2153 30.8724 45.3843 30.816C46.0039 30.4217 45.843 29.5768 44.7808 28.0479L43.6623 26.342L44.9658 25.0545C46.2131 23.8233 46.2131 23.7106 45.7142 23.3083V23.3002Z" fill="#071448" fill-opacity="0.35"/>
<path d="M11.5152 37.6393L12.7463 39.1119C13.3579 39.9649 13.9212 40.7615 14.0338 40.8741C14.0902 41.1558 14.8868 40.8259 15.4501 40.2626C15.7317 39.9809 15.6754 39.812 15.2248 39.4659C14.8868 39.2406 14.2752 38.5003 13.8809 37.76C13.3177 36.7381 13.2694 36.5691 13.8327 36.2391C14.227 36.0702 14.7339 35.9092 15.0156 35.9656C15.8041 36.0863 16.1502 35.7483 16.0375 34.9516C15.9329 34.0504 14.8627 33.8734 13.4947 34.6539C12.8188 34.9919 12.1911 35.1528 12.1348 35.0965C12.0221 34.9838 11.5232 34.0182 11.0243 32.948C9.97016 30.6224 9.29422 30.0591 8.72289 30.8397C8.38493 31.2903 8.43321 31.6846 8.99649 32.3686C9.33446 32.9319 9.88969 33.9538 10.1713 34.6941L10.6702 35.9977L8.90797 37.7359C7.71703 38.9107 7.20203 39.643 7.31469 39.8683C7.65266 40.6649 7.8136 40.7213 8.3286 39.8683C8.61829 39.3613 9.46321 38.7498 10.2035 38.3555L11.5071 37.6313L11.5152 37.6393Z" fill="#071448" fill-opacity="0.35"/>
<path d="M53.1094 56.4933C52.9404 56.6623 52.9967 56.944 53.1657 57.1129C53.3347 57.2819 54.0669 57.1129 54.8636 56.6704C55.7165 56.2841 56.9558 55.7289 57.7524 55.5036C58.9997 55.061 59.225 55.061 59.3859 55.6886C59.6595 56.5336 60.5608 57.4429 61.5183 57.7325C62.2506 58.0222 63.4335 57.974 63.7232 57.6923C63.9485 57.467 63.168 56.6704 62.5966 56.6704C61.977 56.7186 60.6332 54.4575 61.0919 54.0068C61.7195 53.3872 63.699 52.7837 64.037 53.1217C64.206 53.2907 64.544 53.2907 64.7129 53.1217C65.1716 52.6711 63.9887 51.4801 63.0875 51.4721C62.6932 51.4158 61.9046 51.633 61.2769 51.9066C60.3676 52.3572 60.1423 52.3492 59.9251 51.7859C59.7561 51.5043 59.6515 50.941 59.7078 50.6513C59.8285 49.7501 58.8709 49.235 58.1869 49.911C57.7926 50.3053 57.6719 50.8686 57.8892 51.8825C58.2191 53.4677 58.3318 53.355 55.1533 55.2541C54.1876 55.753 53.2783 56.3163 53.1094 56.4853V56.4933Z" fill="#071448" fill-opacity="0.35"/>
<path d="M28.4296 7.82608C29.1619 7.6571 28.9446 6.64319 27.9951 5.67757C26.9865 4.72803 26.8229 3.91798 27.5042 3.24741C28.8722 1.90358 29.3228 1.00233 28.7676 0.656316C28.4859 0.487332 28.0916 0.656316 27.1823 1.43686C26.5547 2.05647 25.9351 2.66804 25.7661 2.72436C25.5971 2.89335 25.1465 2.55538 24.4786 1.75874C23.698 0.736785 23.4164 0.567801 22.9577 0.793113C22.2255 1.06671 22.2737 1.69436 23.2233 2.99796L24.0602 4.18889L22.8692 5.25108C22.1852 5.81436 21.6219 6.48225 21.5012 6.70757C21.1552 7.49616 21.7748 7.44788 23.4808 6.66733L25.1787 5.77413L26.6432 6.80413C27.4318 7.37546 28.2204 7.83413 28.4457 7.83413L28.4296 7.82608Z" fill="#071448" fill-opacity="0.35"/>
<path d="M10.2438 8.38056C10.3565 9.0565 10.6864 10.0785 10.96 10.6981C11.4026 11.4947 11.4026 12.1706 11.1692 13.1845C10.8795 13.9168 10.8232 14.6491 10.8715 14.7054C11.1531 14.987 11.9417 14.5445 12.1751 14.0938C12.344 13.6995 12.7383 13.8685 13.8649 14.7859C15.603 16.2102 15.772 16.2665 16.0617 15.4216C16.2307 14.9146 16.0134 14.464 14.9432 13.265L13.5993 11.7924L15.08 10.4486C16.3272 9.44275 16.5526 9.10478 16.279 8.82314C15.772 8.30814 14.8708 8.53345 13.8488 9.42666C13.3982 9.87728 12.8832 10.2635 12.7142 10.3199C12.5452 10.3762 12.2153 9.6922 11.99 8.90361C11.6601 7.54369 11.4347 7.31838 10.8715 7.19767C10.1955 7.07697 10.1955 7.19767 10.2438 8.38056Z" fill="#071448" fill-opacity="0.35"/>
<path d="M2.7681 19.6784C3.09803 20.9257 2.80834 21.6579 0.933416 23.6214C0.080447 24.4583 -0.144865 24.9089 0.080447 25.1422C0.30576 25.3676 0.812713 25.094 1.83467 24.3054C3.99123 22.6236 4.21654 22.5109 4.66717 23.1949C6.06732 25.2951 6.28459 25.5204 6.79959 25.3515C7.4192 25.0698 7.31459 24.2812 6.42138 23.3719C6.02709 22.9776 5.75349 22.35 5.64084 21.8993C5.53623 21.2234 5.70521 21.0544 6.55013 20.6601C7.11342 20.4348 7.74107 19.9359 7.91006 19.5416C8.59404 18.5277 7.63646 18.238 6.05123 19.0186L4.69131 19.6865L4.1924 18.2702C3.80615 16.9666 3.63717 16.7976 3.01756 16.8459C2.39795 16.7815 2.39795 16.9022 2.3899 17.6908C2.3899 18.1415 2.55084 18.9944 2.7681 19.6704V19.6784Z" fill="#071448" fill-opacity="0.35"/>
</g>
<defs>
<clipPath id="clip0_821_6623">
<rect width="86.52" height="76.6304" fill="white" transform="translate(0 0.599609)"/>
</clipPath>
</defs>
</svg>
