<svg width="62" height="75" viewBox="0 0 62 75" fill="none" xmlns="http://www.w3.org/2000/svg">
<g clip-path="url(#clip0_821_6642)">
<path fill-rule="evenodd" clip-rule="evenodd" d="M60.6607 14.0271C60.6551 13.9752 60.6429 13.9258 60.6268 13.8754C60.0365 14.2109 59.4721 14.5808 58.8273 14.8162C58.0894 15.0855 57.6883 15.6647 57.0794 16.135C55.9615 16.9967 54.9112 17.9375 53.8259 18.8395C52.3941 20.029 51.1349 21.3816 50.1743 22.9682C49.4726 24.1288 48.7258 25.2503 47.9342 26.3488C47.2613 27.2822 46.633 28.2405 46.1145 29.2699C45.6178 30.2602 45.1516 31.2659 44.6122 32.2317C43.6436 33.9679 43.1809 35.8914 42.5201 37.7406C42.465 37.8928 42.4524 38.0614 42.4216 38.2216C42.1891 39.4294 42.0214 40.6531 41.7074 41.8391C41.0041 44.496 41.2138 47.344 41.5604 50.0355C41.6586 50.8046 41.7896 51.5715 41.9719 52.3266C42.0327 52.5838 42.1316 52.8501 42.2072 53.1048C42.2223 53.1508 42.4389 53.9809 42.3744 53.9471C41.9474 53.7344 41.6325 53.3672 41.2366 53.1096C40.8407 52.8519 40.4517 52.5738 40.0496 52.3247C38.6579 51.4599 37.193 50.8883 35.5058 51.208C35.1944 51.2678 35.0582 51.1216 35.0755 50.7926C35.0943 50.4235 35.1308 50.0567 35.1754 49.6899C35.357 48.1424 35.5877 46.6009 35.7159 45.0486C35.8472 43.4587 35.8757 41.86 35.9598 40.2647C35.9913 39.6523 36.0632 39.0396 36.0928 38.4268C36.126 37.732 36.1931 37.0313 36.1426 36.3405C35.97 33.9639 36.0335 31.588 36.067 29.211C36.1086 26.2179 36.547 23.2544 36.7396 20.2717C36.7848 19.5778 36.9004 18.8848 37.0204 18.199C37.1638 17.3916 37.363 16.6038 37.7029 15.8441C38.1023 14.9474 38.4204 14.0107 38.7391 13.0802C38.9799 12.3793 39.051 11.6452 39.1001 10.9018C39.2165 9.14871 38.6376 7.49756 38.4149 5.79348C38.4019 5.69741 38.2748 5.56358 38.1823 5.54518C38.086 5.52585 37.9227 5.59124 37.86 5.67498C37.5633 6.06548 37.3058 6.4857 37.0057 6.87336C35.4295 8.91646 34.5872 11.2306 34.4641 13.802C34.412 14.8658 34.3713 15.9324 34.3672 16.9978C34.3655 17.371 34.3509 17.731 34.2458 18.0892C34.0011 18.9144 33.7841 19.7504 33.5113 20.5668C32.6817 23.0536 31.8349 25.5363 30.9862 28.0185C30.8 28.561 30.5876 29.0952 30.379 29.6303C30.0062 30.584 29.6167 31.5316 29.2534 32.4876C28.9051 33.4068 28.6552 34.3701 28.231 35.2528C26.9142 37.991 25.9545 40.8724 24.7685 43.6625C24.1104 45.2094 23.4838 46.768 22.8405 48.3205C22.7038 48.6509 22.3873 48.7235 22.1778 48.4465C21.9304 48.1179 21.6896 47.7949 21.3499 47.5468C20.2069 46.7141 18.9904 46.0594 17.5541 45.9108C17.4317 45.8993 17.3093 45.8878 17.1877 45.8643C16.7359 45.7789 16.5967 45.5452 16.8422 45.1908C17.4799 44.269 17.8383 43.225 18.2716 42.2052C18.9483 40.6063 19.3557 38.9359 19.7511 37.2647C20.6063 33.6571 20.7554 29.963 20.9046 26.277C20.9989 23.941 20.859 21.6127 20.5639 19.2832C20.2531 16.8266 19.7111 14.4492 18.7589 12.1642C18.5702 11.7104 18.3538 11.2621 18.2177 10.7908C17.5821 8.57452 16.2888 6.72982 14.9547 4.90348C14.8609 4.7737 14.7345 4.66223 14.61 4.55932C14.5526 4.51306 14.4289 4.46489 14.3873 4.49517C14.2973 4.55815 14.1871 4.66269 14.1796 4.75985C14.1594 5.00134 14.1864 5.24821 14.2038 5.49277C14.3315 7.1718 14.3204 8.85751 14.2425 10.5351C14.1593 12.3346 13.928 14.1285 13.761 15.9238C13.7113 16.453 13.6769 16.9859 13.6115 17.5133C13.4551 18.774 13.2753 20.031 13.1212 21.2902C12.8756 23.2846 12.7167 25.2879 12.3434 27.2674C11.8415 29.9267 11.3958 32.5956 10.9192 35.2589C10.6868 36.5496 10.3048 37.8161 10.0785 39.0982C9.7853 40.7559 9.39912 42.389 9.04682 44.0323C8.72176 45.555 8.28417 47.0504 8.04974 48.5991C7.85045 49.9282 7.61127 51.2717 6.98091 52.4962C6.87053 52.7097 6.83325 52.9632 6.7773 53.2021C6.68537 53.606 6.74724 53.7422 7.13391 53.8299C8.05267 54.0387 8.98254 54.2018 9.90037 54.4144C12.3387 54.9778 14.7747 55.5507 17.2075 56.137C18.2031 56.3786 19.1937 56.6492 20.1787 56.9347C20.6676 57.0755 20.7692 57.2395 20.784 57.7278C20.7911 57.9315 20.7716 58.1368 20.7602 58.3421C20.7181 59.2064 20.7545 60.0635 20.9236 60.9144C21.0602 61.5999 21.1907 62.2859 21.3277 62.9695C21.6028 64.3328 21.9964 65.5492 22.8008 66.7037C23.3609 67.5082 24.0309 68.2342 24.6664 68.9862C24.9314 69.301 25.2187 69.3485 25.5304 69.1212C27.055 68.0067 28.57 66.8737 29.6419 65.2778C30.6022 63.8506 31.6179 62.4531 32.2063 60.8105C32.2483 60.6955 32.3037 60.5837 32.3601 60.4762C32.5335 60.1528 32.8014 59.9895 33.1694 60.0627C33.6127 60.1501 34.0532 60.2489 34.4895 60.3568C36.5605 60.8694 38.5543 61.6582 40.6388 62.1236C41.8831 62.3891 43.1213 62.6795 44.3711 62.9141C45.2967 63.0862 46.2358 63.203 47.1725 63.3131C47.9047 63.3999 48.1976 63.2084 48.2942 62.519C48.443 61.4564 48.7487 60.4379 49.0343 59.4106C49.3743 58.1843 49.6851 56.945 49.8244 55.6802C50.0775 53.3887 50.6962 51.1718 51.1471 48.9223C51.8079 45.625 52.6436 42.3641 53.3911 39.0838C53.538 38.4449 53.6058 37.7909 53.7414 37.1492C53.9271 36.2673 54.0527 35.3586 54.3615 34.5186C54.7746 33.399 55.0789 32.253 55.3975 31.1064C55.9553 29.0908 56.5702 27.0891 57.0574 25.0564C57.6501 22.5808 58.3949 20.1522 59.1187 17.7184C59.2471 17.2891 59.4275 16.8704 59.6175 16.4621C59.9275 15.792 60.2628 15.1342 60.5891 14.4722C60.6571 14.3332 60.6808 14.1774 60.6607 14.0271ZM21.2722 54.2009C21.202 54.7069 20.9981 54.8311 20.5094 54.7146C18.8772 54.3246 17.2455 53.9246 15.6147 53.5289C13.9946 53.0974 12.3824 52.6335 10.7164 52.3746C10.3738 52.3218 10.287 52.0887 10.5092 51.8719C11.2407 51.1547 11.9755 50.4485 12.924 50.002C13.6267 49.6696 14.3043 49.2827 14.9877 48.9133C16.1008 48.313 17.2319 48.2542 18.4269 48.6815C19.2873 48.9892 20.0759 49.3846 20.7807 49.9676C21.068 50.207 21.304 50.4743 21.527 50.7707C21.7951 51.1307 21.8737 51.489 21.7396 51.917C21.5048 52.6598 21.3792 53.4271 21.2727 54.199L21.2722 54.2009ZM20.5765 56.4354C20.2086 56.437 19.8152 56.4769 19.4788 56.365C17.5664 55.7232 15.6009 55.3169 14.0796 55.0609C11.8216 54.5534 10.0214 54.1489 8.22007 53.74C7.98073 53.686 7.74318 53.6162 7.51269 53.5341C7.28983 53.4537 7.19808 53.2659 7.24558 53.0451C7.30552 52.7648 7.36923 52.4773 7.4917 52.2223C7.90129 51.3583 8.10912 50.4352 8.25214 49.5046C8.50271 47.881 8.85865 46.281 9.25175 44.6859C9.70271 42.8524 10.1418 41.0181 10.4063 39.1455C10.4644 38.7395 10.5616 38.339 10.6622 37.9412C11.3942 35.0329 11.8997 32.0837 12.3348 29.1174C12.5361 27.7383 12.806 26.3679 13.0173 24.9893C13.1412 24.1791 13.2422 23.3635 13.2932 22.5458C13.3659 21.3557 13.5748 20.1865 13.7376 19.0082C13.9738 17.3023 14.1123 15.5829 14.3251 13.8734C14.4866 12.5756 14.5156 11.2658 14.7532 9.97033C14.9137 9.09237 14.8421 8.17222 14.8749 7.27134C14.8821 7.06707 14.8878 6.86043 14.9049 6.65657C14.9178 6.52843 14.9919 6.42319 15.125 6.40704C15.1978 6.39844 15.2913 6.42112 15.3501 6.46165C15.4477 6.5338 15.5416 6.62122 15.608 6.72215C16.2858 7.74093 16.9025 8.81154 17.3171 9.96637C18.2471 12.5591 19.4917 14.8625 19.9293 17.6367C20.5795 21.7489 20.7433 25.8764 20.2965 30.0233C20.2347 30.594 20.1868 31.1661 20.1589 31.7389C20.0526 33.9166 19.7228 36.0662 19.1681 38.1694C18.6239 40.2287 17.9625 42.2554 16.9555 44.1499C16.6665 44.6917 16.3884 45.2382 16.1228 45.7917C15.9511 46.15 16.0934 46.346 16.4683 46.3158C18.2714 46.1677 20.034 46.9024 21.2877 48.2608C21.622 48.6227 21.9596 48.9712 22.1949 49.408C22.3005 49.6053 22.2743 49.7968 22.2028 49.9996C22.1057 50.275 21.8603 50.3709 21.6292 50.1997C21.4665 50.0795 21.3018 49.9507 21.1689 49.7992C20.1632 48.6504 18.7945 48.2153 17.3764 47.95C16.5146 47.7893 15.6657 48.0418 14.8811 48.4371C14.1122 48.8261 13.3413 49.2146 12.5911 49.6345C12.1634 49.874 11.756 50.1548 11.3691 50.4588C10.7574 50.9405 10.1688 51.4521 9.58254 51.9621C9.50067 52.0332 9.44019 52.1659 9.43236 52.2731C9.42076 52.4541 9.54778 52.5798 9.72083 52.6157C10.0822 52.6913 10.444 52.765 10.8104 52.8115C11.75 52.9344 12.6631 53.1499 13.569 53.4283C15.1757 53.9232 16.8043 54.3446 18.4587 54.6593C19.1904 54.7984 19.888 55.0283 20.559 55.3426C20.9019 55.5025 20.9921 55.6719 20.9497 56.0211C20.9227 56.2407 20.824 56.4309 20.5794 56.4321L20.5765 56.4354ZM33.1403 57.519C32.6393 59.001 32.0575 60.4331 31.3555 61.828C30.0022 64.5169 28.1576 66.7756 25.676 68.4961C25.3605 68.7144 25.2121 68.7268 24.9188 68.4456C23.3249 66.9157 22.0041 65.2259 21.715 62.9301C21.6343 62.2804 21.4557 61.6433 21.3441 60.9962C21.0712 59.4072 21.065 57.8183 21.3658 56.2291C21.5109 55.4645 21.6046 54.6875 21.7011 53.9151C21.9212 52.1509 22.435 50.466 23.0844 48.822C24.4995 45.2372 25.92 41.6557 27.3566 38.0822C27.8456 36.8659 28.3958 35.6725 28.9015 34.4622C29.1857 33.7819 29.4299 33.0838 29.696 32.395C30.36 30.6738 31.0574 28.9648 31.6809 27.2278C32.4693 25.0359 33.2392 22.7951 33.9358 20.5567C34.2776 19.4562 34.6261 18.3532 34.913 17.2373C35.1883 16.161 34.9086 15.0913 35.0187 14.0133C35.2935 11.2828 35.9066 8.8646 37.8971 6.90384C38.0502 7.97909 38.4801 9.1619 38.4177 10.2434C38.3523 11.3868 38.1252 12.6889 37.7055 13.7524C37.1526 15.1572 36.5642 16.5998 36.3223 18.0963C36.1264 19.3029 36.1421 20.5286 36.1091 21.7465C36.0465 24.0519 35.4893 26.2817 35.4564 28.6145C35.4259 30.663 35.3906 32.7145 35.6403 34.7564C35.8563 36.5214 35.6547 38.2761 35.5431 40.0343C35.4332 41.7526 35.4213 43.4826 35.2156 45.1877C35.0401 46.6518 34.9975 48.1259 34.7758 49.5888C34.5919 50.8045 34.3808 52.0155 34.2127 53.233C34.0096 54.7025 33.6166 56.1138 33.1399 57.5209L33.1403 57.519ZM57.8943 20.6002C56.9257 23.5683 56.4144 26.6575 55.3895 29.8079C54.5811 32.623 53.7718 35.6338 53.1169 38.6821C52.7296 40.4865 52.3212 42.2859 51.9381 44.0894C51.5716 45.808 51.1589 47.5255 50.7437 49.2364C50.2814 51.1418 49.8415 53.0628 49.5618 55.0146C49.278 56.9997 49.0034 58.9971 48.27 60.8873C48.076 61.3875 47.9663 61.9062 47.9448 62.4443C47.9373 62.6081 47.815 62.746 47.629 62.7716C47.4264 62.7992 47.2136 62.8606 47.022 62.8262C46.0926 62.6613 45.1468 62.6721 44.2167 62.4768C41.6448 61.9395 39.1045 61.2888 36.5733 60.5918C35.742 60.3638 34.9019 60.1721 34.0679 59.9555C33.7903 59.8841 33.5132 59.8028 33.2501 59.6965C33.0334 59.6076 32.9744 59.4095 33.02 59.1883C33.1448 58.5743 33.47 58.3159 34.0495 58.4C34.2915 58.4345 34.5254 58.5195 34.7615 58.5869C36.5749 59.1037 38.386 59.6219 40.1995 60.1387C40.3564 60.1828 40.5274 60.2021 40.6712 60.2754C42.2501 61.0847 44.0206 60.971 45.6953 61.3107C45.9165 61.3563 46.1042 61.107 45.9915 60.914C45.645 60.3109 45.3094 59.6963 44.9099 59.1288C44.3215 58.2912 43.7834 57.3791 43.0427 56.6944C41.626 55.3833 40.0111 54.3229 38.1916 53.6148C37.2207 53.2378 36.2227 53.0643 35.18 53.1749C34.7823 53.2157 34.6709 53.0675 34.7438 52.6671C34.7649 52.547 34.794 52.4268 34.8213 52.3062C34.8983 51.9472 35.1167 51.7296 35.4799 51.6642C36.3861 51.5004 37.2804 51.5437 38.1396 51.8814C38.8255 52.1509 39.4909 52.4719 40.0956 52.9094C41.1228 53.6535 42.2499 54.2603 43.1253 55.2058C43.1607 55.2427 43.2869 55.2389 43.3395 55.2053C43.3921 55.1716 43.4442 55.0651 43.4295 55.009C43.3216 54.6132 43.2638 54.1852 43.0668 53.8405C42.3329 52.5536 42.2124 51.1106 41.9623 49.7028C41.5849 47.5876 41.5753 45.4545 41.8482 43.3315C41.9945 42.1956 42.2876 41.0792 42.5183 39.9537C42.5686 39.7134 42.6698 39.4794 42.6924 39.2365C42.8264 37.8351 43.3467 36.5314 43.7479 35.2029C44.0066 34.3447 44.3984 33.5209 44.7874 32.7084C45.319 31.5994 45.8961 30.5115 46.4693 29.4226C47.0049 28.4055 47.5788 27.4137 48.2899 26.5058C49.0246 25.5672 49.6497 24.5556 50.2663 23.5378C51.1864 22.0181 52.3297 20.694 53.6199 19.4721C55.0547 18.1117 56.591 16.891 58.2425 15.8113C58.415 15.6997 58.5817 15.5786 58.7639 15.4854C58.8654 15.4333 58.9996 15.371 59.0948 15.5031C59.1386 15.5642 59.1777 15.6525 59.1673 15.7207C59.123 16.0028 59.0741 16.2878 59.0012 16.563C58.6426 17.9079 58.3283 19.2696 57.8981 20.5931L57.8943 20.6002ZM33.7304 57.1512C33.9795 56.1998 34.24 55.2511 34.4871 54.2993C34.5683 53.9898 34.7608 53.8204 35.0562 53.7184C35.5805 53.5386 36.1157 53.5635 36.6354 53.6775C37.7186 53.9161 38.7766 54.2334 39.7136 54.8667C40.3918 55.3261 41.1006 55.7425 41.7703 56.212C42.1688 56.4925 42.5438 56.8198 42.8884 57.1639C43.5869 57.8646 44.076 58.7285 44.6281 59.5411C44.7623 59.7372 44.8155 59.9925 44.8923 60.2252C44.9701 60.4622 44.8563 60.5982 44.5793 60.6077C44.3756 60.6148 44.1658 60.6306 43.968 60.5967C43.104 60.4537 42.2009 60.38 41.3701 60.0835C40.346 59.7178 39.3103 59.5332 38.2669 59.2719C37.8573 59.1705 37.4722 58.9599 37.0648 58.8409C36.3207 58.6199 35.5766 58.3989 34.8333 58.1742C34.5605 58.0918 34.2922 57.9823 34.0333 57.8589C33.7272 57.7139 33.641 57.5031 33.7328 57.1497L33.7304 57.1512Z" fill="#071448" fill-opacity="0.75"/>
<path fill-rule="evenodd" clip-rule="evenodd" d="M44.2641 38.8771C44.8998 35.8908 46.0425 33.0962 47.4098 30.3743C48.5231 28.1583 50.0545 26.2335 51.4946 24.2442C52.0472 23.4816 52.5917 22.7109 53.1764 21.9743C54.3023 20.555 55.6521 19.3537 56.9885 18.141C57.0765 18.0614 57.2076 18.0124 57.3229 18.103C57.4588 18.2087 57.537 18.3529 57.492 18.5298C57.4633 18.6481 57.4041 18.7589 57.3659 18.8749C57.0736 19.7713 56.7532 20.659 56.4972 21.5643C55.7835 24.0893 54.8718 26.5562 54.336 29.1305C54.1269 30.134 53.8796 31.1283 53.7843 32.1533C53.7006 33.056 53.4186 33.9186 53.1661 34.7844C52.7304 36.2802 52.2261 37.7594 52.0555 39.3196C52.0385 39.4811 51.9935 39.6418 51.9398 39.7964C51.2752 41.7861 51.0126 43.8672 50.5182 45.8961C50.3539 46.5732 50.1625 47.2458 50.0211 47.9284C49.7636 49.1727 49.4608 50.4039 49.3044 51.6726C49.1642 52.808 48.8377 53.9204 48.5842 55.0403C48.313 56.2408 48.0271 57.4357 47.7636 58.6381C47.6847 58.9966 47.6811 59.3694 47.6156 59.7312C47.5656 60.0038 47.3527 60.1319 47.0898 60.1751C46.8648 60.2114 46.6768 60.1375 46.5721 59.9364C46.1736 59.1733 45.7685 58.4125 45.4991 57.5918C44.9865 56.0335 44.4825 54.4732 43.961 52.9188C43.2752 50.8761 42.9921 48.7635 42.992 46.6247C42.9921 45.6089 43.2007 44.5911 43.3279 43.5758C43.415 42.884 43.4925 42.1899 43.6316 41.5087C43.8116 40.6253 44.0493 39.754 44.2617 38.8785L44.2641 38.8771ZM44.5464 39.1536C43.9834 41.0326 43.7332 43.0622 43.4984 45.1036C43.3754 46.1684 43.2842 47.2268 43.392 48.289C43.532 49.6761 43.6944 51.0627 44.1392 52.3925C44.6204 53.8301 45.1373 55.2541 45.6142 56.6927C45.9001 57.5538 46.2552 58.3791 46.6891 59.1711C46.7368 59.2574 46.8781 59.3078 46.9868 59.3342C47.0212 59.3426 47.1132 59.2296 47.1365 59.1585C47.4224 58.3049 47.7178 57.4536 47.8554 56.562C48.1793 54.4533 48.7777 52.4032 49.1235 50.2958C49.4482 48.3166 49.9903 46.3739 50.4509 44.4176C50.8259 42.8222 51.1761 41.2208 51.5706 39.6281C51.9531 38.0769 52.2464 36.5021 52.6961 34.9652C53.0653 33.7016 53.3091 32.4137 53.5225 31.1184C53.5745 30.7957 53.5908 30.4624 53.6733 30.1472C54.0694 28.6397 54.4579 27.1303 54.8954 25.635C55.3907 23.9435 55.9389 22.2669 56.4551 20.5806C56.5743 20.1894 56.6672 19.7899 56.7582 19.3898C56.7726 19.3307 56.7261 19.2225 56.6745 19.1938C56.621 19.1647 56.5159 19.1816 56.4585 19.2182C56.3562 19.2822 56.2678 19.3718 56.1822 19.4581C55.4916 20.1569 54.812 20.8686 54.1069 21.5518C53.5447 22.096 53.0399 22.6783 52.6083 23.333C52.1128 24.0852 51.5789 24.812 51.0317 25.5275C49.8363 27.0914 48.6733 28.6713 47.8064 30.4544C46.4608 33.2199 45.1214 35.9849 44.552 39.1469L44.5464 39.1536Z" fill="#071448" fill-opacity="0.75"/>
<path fill-rule="evenodd" clip-rule="evenodd" d="M19.2742 31.3728C19.3847 29.2446 19.4913 27.1155 19.5171 24.987C19.5424 22.9351 19.3815 20.8846 18.9083 18.8814C18.2114 15.9272 17.4627 12.9867 16.5168 10.1013C16.3632 9.63589 16.1592 9.1865 15.9656 8.73561C15.9192 8.6274 15.8015 8.54634 15.6787 8.61954C15.6223 8.6523 15.5773 8.75449 15.5764 8.82495C15.5639 10.5911 15.3851 12.3432 15.2135 14.099C15.1215 15.036 15.0742 15.9798 15.0698 16.9219C15.0644 17.9931 14.9741 19.0476 14.7867 20.1028C14.5058 21.6766 14.2106 23.251 14.0036 24.8367C13.7847 26.5043 13.6097 28.1745 13.2121 29.8129C13.1543 30.0513 13.0836 30.2927 13.0672 30.5351C12.9772 31.9795 12.595 33.3631 12.2524 34.7584C12.0746 35.4746 11.8701 36.1925 11.7842 36.9209C11.5283 39.0824 11.1261 41.2145 10.6691 43.3393C10.4445 44.3815 10.2084 45.4209 10.0086 46.4691C9.78391 47.6364 9.65742 48.8236 9.28303 49.9586C9.24526 50.0727 9.24899 50.1988 9.23937 50.3217C9.22662 50.4741 9.44467 50.6159 9.58832 50.5316C10.2635 50.138 10.8185 49.59 11.3971 49.07C11.6114 48.8776 12.4736 47.8549 12.5111 47.8417C14.4234 45.9953 16.0181 43.9425 17.0236 41.4055C18.3064 38.1662 19.0965 34.8438 19.2781 31.3737L19.2742 31.3728ZM17.3695 39.2557C17.2349 39.6855 17.0851 40.1117 16.9395 40.5368C16.2052 42.6974 15.0908 44.6264 13.5536 46.3255C12.7585 47.205 11.8882 48.2864 10.976 49.0325C10.7545 49.213 10.5267 49.3859 10.2917 49.547C10.2382 49.5845 10.1273 49.5839 10.0661 49.5529C10.0103 49.5252 9.94294 49.4281 9.95018 49.3733C10.1026 48.3621 10.2375 47.3486 10.4305 46.3452C10.6005 45.4615 10.8653 44.5947 11.0392 43.7119C11.3214 42.2657 11.5575 40.8102 11.8245 39.3603C12.2172 37.2259 12.4907 35.0666 13.105 32.9759C13.1627 32.7799 13.1846 32.5731 13.2194 32.3715C13.5988 30.1087 14.0016 27.8495 14.35 25.5812C14.6553 23.5993 14.8251 21.5926 15.1918 19.6235C15.525 17.8342 15.4154 16.0303 15.5896 14.2388C15.6412 13.71 15.6775 13.1776 15.7386 12.6511C15.8162 11.9651 15.7942 11.265 16.0109 10.5966C16.0146 10.5813 16.1064 10.5693 16.1136 10.5811C16.4746 11.2241 16.6794 11.9282 16.86 12.6324C17.4724 15.0107 18.1244 17.3844 18.6213 19.7892C19.0105 21.6731 19.0952 23.6042 19.0848 25.5365C19.0697 27.9544 18.8936 30.3614 18.7251 32.7704C18.5691 34.9945 18.0351 37.137 17.3719 39.2543L17.3695 39.2557Z" fill="#071448" fill-opacity="0.75"/>
<path fill-rule="evenodd" clip-rule="evenodd" d="M35.1468 20.2107C35.1161 20.2538 35.1872 20.9678 35.1781 21.0969C35.145 21.6079 35.1874 22.0908 35.1019 22.6012C35.0023 23.2031 34.8855 23.8009 34.8569 24.4099C34.7692 26.3194 34.8158 28.2332 34.8714 30.1431C34.8808 30.4706 34.8807 30.8038 34.9386 31.1228C35.2272 32.7136 35.122 34.3038 34.9874 35.899C34.94 36.4691 35.0059 37.0465 34.9803 37.618C34.9003 39.3375 34.8637 41.0614 34.6951 42.7716C34.5051 44.6865 34.1932 46.588 33.9284 48.495C33.7815 49.5499 33.5855 50.599 33.4857 51.6593C33.3841 52.7273 33.178 53.7679 32.8905 54.7948C32.825 55.0314 32.7514 55.268 32.7107 55.5106C32.3639 57.5228 31.4604 59.3151 30.4953 61.0784C30.0017 61.9805 29.3068 62.747 28.6616 63.5417C28.0923 64.2397 27.5063 64.9235 26.9605 65.6413C26.4949 66.2534 25.9331 66.7957 25.2782 67.2225C24.6051 66.742 24.4733 65.9285 24.1093 65.2645C23.8962 64.8776 23.7993 64.4198 23.6915 63.9817C23.2507 62.1944 22.7157 60.4206 22.7732 58.5522C22.8018 57.6523 22.7998 56.745 22.9226 55.8559C23.1692 54.0738 23.4073 52.2937 23.9827 50.5632C24.7078 48.3822 25.6201 46.279 26.446 44.1406C27.1689 42.2682 27.8795 40.3886 28.5972 38.5128C29.3608 36.523 30.1372 34.5383 30.8894 32.5456C31.5686 30.7453 32.2645 28.9511 32.9031 27.1349C33.335 25.9128 33.7611 24.6893 34.1596 23.455C34.3572 22.8405 34.5471 22.2242 34.7275 21.6055C34.854 21.1677 34.8732 20.5806 35.1487 20.2112L35.1468 20.2107ZM34.4565 23.7129C34.2474 24.3751 34.0905 24.955 33.8849 25.5191C33.1113 27.6338 32.3243 29.7452 31.5358 31.8542C31.2353 32.6599 30.9124 33.458 30.599 34.2585C30.1228 35.48 29.587 36.6809 29.1844 37.9242C28.7169 39.3679 28.1869 40.7864 27.6106 42.1875C26.9561 43.7777 26.3217 45.3768 25.6524 46.9614C25.3162 47.7563 25.0662 48.5782 24.7858 49.3928C24.5678 50.0245 24.5564 50.5711 25.0555 51.0861C25.3091 51.3475 25.5255 51.6626 25.693 51.988C26.1692 52.9054 26.8812 53.6497 27.4635 54.4878C27.7866 54.9539 27.9334 54.9734 28.3522 54.6206C29.5212 53.6319 30.8428 52.8963 32.2082 52.2299C32.3548 52.1585 32.5023 52.0832 32.6475 52.0093C32.8823 51.8906 33.0204 51.6959 33.0777 51.4432C33.122 51.2439 33.1706 51.0436 33.1997 50.8407C33.5033 48.7735 33.817 46.7068 34.0997 44.6346C34.2329 43.6611 34.3475 42.6811 34.3954 41.7011C34.5085 39.3292 34.5777 36.9548 34.6565 34.5826C34.6814 33.8475 34.761 33.1115 34.6698 32.3723C34.3604 29.8434 34.3334 27.3083 34.5476 24.7691C34.5736 24.4623 34.6907 24.1292 34.4565 23.7129ZM29.8658 57.4135C29.4163 57.3185 28.9677 57.2278 28.5475 57.1117C28.1955 57.0142 28.0943 56.6907 28.357 56.4819C29.6329 55.4686 30.7285 54.1995 32.3525 53.6827C32.7006 53.5713 32.871 53.2935 32.8876 52.934C32.8939 52.8164 32.8981 52.6579 32.8319 52.5893C32.7691 52.5236 32.5866 52.5015 32.4974 52.5445C31.5342 53.0015 30.5548 53.4505 29.7812 54.1999C29.2455 54.7182 28.6436 55.1094 27.9952 55.4509C27.7083 55.6014 27.4945 55.5919 27.3633 55.3501C26.8768 54.4504 26.0974 53.7503 25.69 52.7911C25.5012 52.3454 25.1805 51.9525 24.9011 51.5474C24.8117 51.4167 24.6781 51.3095 24.5471 51.2172C24.4973 51.1808 24.3683 51.1798 24.3248 51.2177C24.0045 51.5056 23.923 52.2492 24.1841 52.5549C24.557 52.9908 24.9502 53.4093 25.3311 53.837C25.855 54.4246 26.2685 55.0763 26.4581 55.8514C26.5521 56.2378 26.3182 56.4779 25.9025 56.4013C25.6609 56.3568 25.4256 56.2775 25.1854 56.2272C24.7453 56.1346 24.303 56.0434 23.8583 55.9699C23.569 55.9219 23.3653 56.0542 23.3028 56.3198C23.2547 56.5181 23.2352 56.7235 23.2142 56.9264C23.1901 57.1589 23.3022 57.3214 23.5188 57.3941C23.7521 57.473 23.9882 57.5403 24.2275 57.5944C25.8181 57.9561 27.4258 58.2472 28.9886 58.7315C29.5692 58.9107 30.1982 58.9402 30.8057 59.0169C30.9095 59.03 31.0596 58.9775 31.1305 58.9018C31.6295 58.3685 31.489 57.8154 30.8175 57.6363C30.5047 57.5523 30.1824 57.4822 29.8596 57.414L29.8658 57.4135ZM27.2191 61.6042C27.0053 62.8267 26.8462 63.7151 26.701 64.6049C26.6791 64.745 26.5916 64.956 26.8261 64.9968C26.9133 65.0119 27.0502 64.9138 27.121 64.83C27.7489 64.0735 28.3787 63.3175 28.9826 62.5431C29.5625 61.8012 30.1242 61.0428 30.5305 60.1841C30.7224 59.7763 30.6607 59.5977 30.2132 59.4528C29.6679 59.278 29.1132 59.1252 28.5581 58.9825C28.2043 58.8926 28.0016 58.9868 27.8908 59.3356C27.6197 60.1948 27.3786 61.0633 27.2191 61.6042ZM25.0433 62.5142C25.3531 61.5453 25.4822 60.5304 25.6047 59.518C25.7619 58.2292 25.951 58.2489 24.465 57.9307C24.2271 57.879 23.9799 57.8574 23.7356 57.8406C23.2279 57.8022 23.1441 57.8727 23.1322 58.3546C23.1075 59.4634 23.2413 60.5602 23.5001 61.6328C23.7108 62.5039 24.027 63.3481 24.3066 64.2016C24.3256 64.2567 24.4293 64.3203 24.4888 64.3165C24.9508 64.2852 24.9482 62.8062 25.0409 62.5157L25.0433 62.5142ZM25.693 64.023C25.5735 64.5656 25.2978 65.1692 25.2843 65.8324C25.2809 66.0295 25.27 66.249 25.4746 66.3714C25.5893 66.4396 25.8901 66.1491 25.9473 65.8883C26.0433 65.4511 26.1516 65.0129 26.1947 64.5689C26.364 62.8145 26.7773 61.1193 27.3766 59.4653C27.4308 59.3168 27.453 59.1506 27.4571 58.992C27.4606 58.803 27.1713 58.6217 26.8952 58.6194C26.7081 58.6164 26.5693 58.714 26.5453 58.8879C26.4727 59.4115 26.4335 59.9393 26.3648 60.4638C26.2106 61.6321 26.1722 62.8225 25.6921 64.0268L25.693 64.023ZM32.1858 55.5932C32.2534 55.3148 32.3305 55.0386 32.3847 54.7569C32.4274 54.531 32.2145 54.3763 31.9904 54.4673C31.2661 54.7642 30.5952 55.1568 29.9941 55.6613C29.7504 55.8667 29.3188 56.0225 29.3844 56.3595C29.4664 56.7955 29.9732 56.6963 30.3027 56.7702C31.824 57.109 31.8268 57.0976 32.1843 55.5909L32.1858 55.5932ZM24.3634 55.6945C24.769 55.7708 25.1854 55.8193 25.5814 55.877C25.7567 55.9034 25.8566 55.7499 25.8124 55.5574C25.5769 54.5389 24.7942 53.9026 24.1394 53.1803C24.0262 53.0559 23.7996 53.1241 23.7417 53.2878C23.5368 53.8742 23.4272 54.4757 23.4338 55.0974C23.4364 55.3282 23.5432 55.4874 23.7655 55.5535C23.9577 55.6102 24.1589 55.655 24.3638 55.6926L24.3634 55.6945Z" fill="#071448" fill-opacity="0.75"/>
</g>
<defs>
<clipPath id="clip0_821_6642">
<rect width="47.4145" height="65.004" fill="white" transform="translate(15.3286) rotate(13.6394)"/>
</clipPath>
</defs>
</svg>
