<svg width="66" height="66" viewBox="0 0 66 66" fill="none" xmlns="http://www.w3.org/2000/svg">
<path d="M24.75 6.1875C22.0654 6.1875 19.7956 7.91742 18.9412 10.3125H18.5625C14.025 10.3125 10.3125 14.025 10.3125 18.5625V28.875H6.1875V35.0625H10.3125V55.6875C10.3125 56.8219 11.2406 57.75 12.375 57.75H18.5625L19.2634 55.6875H46.7366L47.4375 57.75H53.625C54.7594 57.75 55.6875 56.8219 55.6875 55.6875V35.0625H59.8125V28.875H55.6875V18.5625C55.6875 14.025 51.975 10.3125 47.4375 10.3125H47.0588C46.2044 7.91742 43.9346 6.1875 41.25 6.1875H24.75ZM24.75 10.3125H41.25C42.3885 10.3125 43.3125 11.2386 43.3125 12.375V14.4375H47.4375C49.7475 14.4375 51.5625 16.2525 51.5625 18.5625V22.6875H14.4375V18.5625C14.4375 16.2525 16.2525 14.4375 18.5625 14.4375H22.6875V12.375C22.6875 11.2386 23.6115 10.3125 24.75 10.3125ZM26.8125 14.4375V18.5625H39.1875V14.4375H26.8125ZM14.4375 26.8125H30.9375V35.0625H14.4375V26.8125ZM35.0625 26.8125H51.5625V35.0625H35.0625V26.8125ZM14.4375 39.1875H51.5625V51.5625H14.4375V39.1875ZM16.5 43.3125V47.4375H24.75V43.3125H16.5ZM41.25 43.3125V47.4375H49.5V43.3125H41.25Z" fill="white"/>
</svg>
