<svg width="69" height="68" viewBox="0 0 69 68" fill="none" xmlns="http://www.w3.org/2000/svg">
<path d="M31.0398 0.533742C29.2025 0.284566 27.6418 0.566113 26.3122 0.921904C24.9826 1.27769 23.872 1.67927 22.5861 1.83189C20.6959 2.05266 19.2977 1.53065 15.992 1.75245C14.65 1.84386 13.2915 2.57101 12.6227 3.82595C11.9539 5.08089 11.6826 6.64707 11.3613 9.016C11.08 11.0901 9.8427 21.2801 9.23077 24.7247C8.5993 28.2739 7.87282 31.1401 6.71006 32.8749C4.82097 35.6959 3.02731 39.7898 2.47827 43.8381C2.27692 45.3226 2.28706 46.4337 2.36395 47.2108C2.38179 47.3955 2.40507 47.5005 2.43318 47.6491C2.16495 47.9666 1.94776 48.3821 1.87708 48.9032C1.87494 48.919 1.87351 48.9296 1.87137 48.9454L0.930976 58.7252C0.930976 58.7252 0.96238 58.8099 0.961666 58.8151C0.950957 58.8941 0.879027 59.3454 1.11938 59.8659C1.38035 60.432 2.08299 60.983 2.88316 61.0915C3.34116 61.1536 5.73552 61.5642 5.73552 61.5642C5.81832 61.5861 5.90255 61.5975 5.98821 61.5984C5.98821 61.5984 6.25571 61.6025 6.60066 61.5099C6.77313 61.4636 6.98433 61.369 7.24738 61.1688C7.48651 60.9867 7.7169 60.632 7.8056 60.2151C7.78418 60.3731 7.73895 60.3508 7.7906 60.642C7.84707 60.9767 8.07994 61.3943 8.423 61.6713C8.76607 61.9484 9.14108 62.0689 9.47799 62.1146L15.5425 62.9371C15.6432 62.9454 15.7447 62.9485 15.843 62.935C15.843 62.935 16.1607 62.9245 16.5511 62.7737C16.9415 62.6229 17.6646 62.1527 17.7846 61.2683L18.1787 58.3624C18.5001 58.4435 18.8416 58.4952 19.2623 58.5951C20.3949 58.8613 21.8331 59.2065 23.2538 59.5225C25.7981 60.0927 27.7606 60.5251 28.2505 60.6291C28.1804 61.027 28.0941 61.4656 28.0941 61.4656C28.0512 61.6635 28.0504 61.8672 28.0984 62.0667C28.0984 62.0667 28.1754 62.447 28.3917 62.7498C28.608 63.0525 29.0272 63.3614 29.5274 63.5471C30.0328 63.7336 30.7524 63.9224 31.4668 64.1104C32.1811 64.2984 32.7916 64.4616 32.7916 64.4616C32.8744 64.4836 32.9586 64.495 33.0443 64.4959C33.0443 64.4959 33.3278 64.5397 33.6874 64.4974C33.8675 64.4735 34.1046 64.4253 34.4012 64.2939C34.6978 64.1626 35.2421 63.7861 35.3363 63.0912C35.3271 63.1596 35.3836 62.9797 35.4013 62.9285C35.5276 62.9456 35.5901 62.9594 35.6961 62.9684C35.6964 63.006 35.6794 63.052 35.679 63.0948C35.6926 63.429 35.6832 63.6958 35.6832 63.6958L35.7675 63.7072C35.7551 63.8771 35.6957 64.0782 35.8752 64.4939C36.1106 65.0512 36.858 65.6672 37.639 65.7195C37.4315 65.7075 37.8299 65.7347 38.1444 65.7881C38.4588 65.8414 38.8838 65.9098 39.2757 65.9844C40.0551 66.1276 40.7804 66.2742 40.7804 66.2742C40.8482 66.2888 40.9219 66.2988 40.991 66.3028C40.991 66.3028 41.4576 66.3018 41.879 66.0801C42.2892 65.8623 42.6903 65.3163 42.8313 64.751L42.8734 64.7568C42.8748 64.7462 42.8777 64.7252 42.8791 64.7146C42.9284 64.4694 42.9279 64.3942 42.9533 64.1672C43.3857 64.2204 43.7265 64.2774 44.2589 64.3442C44.7071 64.3996 45.1433 64.4642 45.4802 64.5099C45.5855 64.5241 45.5546 64.5146 45.6487 64.5327L45.5823 65.3386C45.5753 65.6272 45.6554 65.9061 45.8164 66.1424C45.8164 66.1424 46.0386 66.7569 46.9292 67.1082C47.3255 67.2691 47.3288 67.2053 47.4709 67.2245C47.6131 67.2438 47.7643 67.275 47.9342 67.2874C48.274 67.312 48.6934 67.3421 49.0827 67.3574C49.8658 67.3939 50.5796 67.3888 50.5796 67.3888C51.0155 67.4158 51.4365 67.237 51.7181 66.8999C51.7181 66.8999 51.8773 66.6749 52.0393 66.4288C52.1203 66.3057 52.1824 66.1641 52.2706 65.9884C52.315 65.8979 52.3942 65.8282 52.4426 65.6686C52.4508 65.6483 52.4088 65.5621 52.4177 65.5365C52.4625 65.4032 52.4999 65.1671 52.4248 64.8513C52.5014 65.1565 52.4929 65.3377 52.4769 65.4159C52.4659 65.4573 52.4736 65.4798 52.4655 65.5001C52.5173 65.3946 52.5928 65.2333 52.6968 65.0597C52.7792 64.9262 52.794 64.896 52.8631 64.7821C53.3835 64.74 53.8799 64.7162 54.2929 64.6757C54.331 64.7506 54.3533 64.8233 54.3906 64.9035C54.5073 65.1498 54.5826 65.2672 54.6283 65.3646C54.638 65.4517 54.619 65.433 54.6476 65.5388C54.7138 65.7622 54.8475 66.0805 55.1822 66.3404C55.5169 66.6002 56.0072 66.6613 56.3443 66.6266C56.2677 66.6377 56.5335 66.6148 56.819 66.6052C57.1044 66.5957 57.4604 66.5797 57.8104 66.5682C58.5052 66.5444 59.1867 66.5404 59.1867 66.5404C59.5314 66.5282 59.8558 66.3899 60.0975 66.1492L60.5986 65.6167C60.7679 65.436 60.8888 65.2165 60.9427 64.9772L61.2939 63.6524C61.4657 63.6113 61.6501 63.5559 61.8278 63.5103C62.0439 63.4592 62.0632 63.435 62.2297 63.3933L62.5231 64.0764C62.6254 64.3101 62.7914 64.5095 63.002 64.656C63.002 64.656 63.1773 64.787 63.4003 64.8816C63.6234 64.9762 63.9398 65.0942 64.501 64.988C64.8529 64.9231 64.8986 64.9025 65.167 64.821C65.4354 64.7394 65.7361 64.6569 66.0607 64.5562C66.7039 64.3593 67.3141 64.1686 67.3141 64.1686C67.6328 64.0725 67.9018 63.8677 68.0794 63.5862C68.0794 63.5862 68.1855 63.3969 68.3107 63.1458C68.3706 63.0199 68.443 62.8421 68.5055 62.6576C68.5681 62.473 68.684 62.2904 68.5834 61.7674C68.5802 61.7509 68.5922 61.7418 68.5891 61.7253C68.5802 61.633 68.5619 61.4911 68.5563 61.3349C68.5405 61.0164 68.5548 60.5948 68.542 60.1749C68.5293 59.755 68.4923 59.3158 68.4914 58.9672C68.4904 58.6186 68.495 58.3082 68.4871 58.3661C68.559 57.7969 68.3172 57.287 68.0382 56.9328C68.1808 55.644 68.2715 53.0776 67.0997 50.8868C65.6066 48.1003 62.6626 46.3661 59.859 46.0877C57.6268 45.8653 56.1783 46.3069 55.3363 46.5465C54.4943 46.7861 54.4281 46.879 53.3034 46.3566C52.0069 45.7572 51.0922 45.1882 50.6666 44.9267C50.7193 43.3523 50.2673 41.9025 49.232 40.9579C47.9298 39.7681 46.1767 39.096 44.3339 38.4923C41.8134 37.6679 40.4078 37.3593 38.2296 35.4341C37.2286 34.5532 36.6927 33.6817 36.3017 32.2562C35.9106 30.8307 35.7273 28.8222 35.5966 26.0703C35.5273 24.5652 35.8956 20.664 36.3957 16.7002C36.8957 12.7365 37.4945 8.59845 37.8179 6.21372C38.0421 4.56073 37.0223 3.14647 35.7401 2.24346C34.458 1.34045 32.8296 0.776493 31.0398 0.533742ZM30.6742 3.22907C32.1008 3.42255 33.4004 3.92047 34.1932 4.47834C34.9861 5.0362 35.1768 5.44808 35.1226 5.84816C34.8034 8.20131 34.1997 12.3762 33.6946 16.3768C33.1896 20.3774 32.7774 24.1279 32.8749 26.2159C33.009 29.0218 33.1744 31.1619 33.6741 32.9721C34.1738 34.7822 35.046 36.2569 36.4107 37.4606C38.9579 39.7092 41.0822 40.2922 43.5108 41.0827C45.2256 41.6422 46.6748 42.2623 47.4189 42.9422C48.1441 43.6035 48.383 44.1345 48.0791 45.3478C48.0688 45.3839 48.0779 45.3959 48.0676 45.432C48.0461 45.472 48.0246 45.512 48.0084 45.5527C47.7895 46.2574 46.9532 47.5218 45.9397 48.789C44.8934 50.1 43.7365 51.3959 42.9066 52.495C42.5449 52.8695 42.4278 53.4165 42.6026 53.9066C42.7826 54.3975 43.2238 54.7414 43.7419 54.7956C44.2652 54.8505 44.7653 54.602 45.0401 54.1568C45.7391 53.233 46.9504 51.8908 48.0675 50.4929C48.8167 49.5545 49.276 48.5392 49.7957 47.5535C50.4355 47.9352 50.9437 48.2989 52.1491 48.8591C53.7584 49.6028 55.1463 49.4104 56.1 49.1377C57.0537 48.8649 57.7582 48.612 59.5777 48.7944C61.3551 48.9711 63.736 50.3502 64.6984 52.148C65.4126 53.4833 65.3397 55.4839 65.27 56.4716C64.2852 56.8152 59.3653 58.4639 50.1651 58.1114C40.9116 57.7571 34.2188 56.903 23.097 51.8241C21.1079 50.9163 18.7785 50.3431 16.6222 49.9166C14.4659 49.4901 12.456 49.1693 11.4035 48.8657C6.47297 47.4304 5.41566 47.0832 5.09712 46.9811C5.09614 46.9488 5.10908 46.972 5.10284 46.9389C5.04932 46.3849 4.99938 45.4881 5.17359 44.2036C5.64624 40.7187 7.33362 36.8945 8.98706 34.4275C9.44427 33.7443 9.82056 32.9858 10.1492 32.1833C12.5057 33.8217 19.4879 39.1434 21.5275 46.6361C21.7243 47.3597 22.4756 47.7887 23.1993 47.5919C23.9229 47.3952 24.3518 46.6439 24.1551 45.9202C21.5291 36.2679 12.3938 30.3379 10.9894 29.4666C11.3383 28.12 11.6444 26.6926 11.9147 25.1745C12.5757 21.447 13.7938 11.3188 14.0566 9.38156C14.3672 7.09158 14.7081 5.68495 15.0239 5.09518C15.3398 4.5054 15.363 4.49247 16.1853 4.4378C19.1178 4.24043 20.4375 4.82687 22.9058 4.53437C24.5401 4.34321 25.838 3.86518 27.0281 3.54945C28.2182 3.23372 29.295 3.04201 30.6742 3.22907ZM31.8312 7.03155C30.9362 6.91018 30.0873 7.55632 29.966 8.45126C29.8446 9.34619 30.4964 10.153 31.3914 10.2744C32.2863 10.3957 33.0874 9.786 33.2088 8.89106C33.3301 7.99613 32.7261 7.15293 31.8312 7.03155ZM30.7395 14.1318C29.8446 14.0104 29.0378 14.6622 28.9164 15.5572C28.7951 16.4521 29.4048 17.2532 30.2997 17.3746C31.1947 17.4959 32.0379 16.8919 32.1592 15.997C32.2806 15.102 31.6345 14.2531 30.7395 14.1318ZM30.0419 20.8565C29.147 20.7351 28.3402 21.387 28.2188 22.2819C28.0975 23.1769 28.7072 23.9779 29.6021 24.0993C30.4971 24.2207 31.3403 23.6167 31.4616 22.7217C31.583 21.8268 30.9369 20.9779 30.0419 20.8565ZM30.0053 28.4C29.1104 28.2786 28.3093 28.8884 28.1879 29.7833C28.0665 30.6783 28.6706 31.5215 29.5655 31.6428C30.4604 31.7642 31.3093 31.1181 31.4307 30.2231C31.5521 29.3282 30.9002 28.5214 30.0053 28.4ZM32.4542 34.6937C31.5592 34.5724 30.7524 35.2242 30.6311 36.1192C30.5097 37.0141 31.1194 37.8152 32.0144 37.9365C32.9093 38.0579 33.7525 37.4539 33.8739 36.559C33.9952 35.664 33.3491 34.8151 32.4542 34.6937ZM37.0531 39.0488C36.1582 38.9274 35.3092 39.5736 35.1879 40.4685C35.0665 41.3635 35.7184 42.1703 36.6133 42.2916C37.5082 42.413 38.3093 41.8033 38.4307 40.9083C38.5521 40.0134 37.948 39.1702 37.0531 39.0488ZM43.1325 41.9749C42.2376 41.8535 41.3944 42.4576 41.273 43.3525C41.1516 44.2474 41.7978 45.0963 42.6927 45.2177C43.5876 45.3391 44.3944 44.6872 44.5158 43.7923C44.6372 42.8974 44.0274 42.0963 43.1325 41.9749ZM4.521 49.6478C5.42538 49.9367 6.99699 50.4447 10.659 51.5096C12.0668 51.9204 13.9996 52.1771 16.0881 52.5891C18.1767 53.001 20.3805 53.5519 21.9906 54.2903C33.3904 59.4927 40.6819 60.4387 50.058 60.7989C57.9354 61.1007 63.4646 59.8616 65.8003 59.2026C65.7974 59.54 65.7707 59.8956 65.7839 60.2726C65.7997 60.709 65.8163 61.1402 65.8345 61.4804C65.8399 61.5991 65.833 61.6893 65.8366 61.7809C65.6125 61.8524 65.551 61.8708 65.2549 61.9593C65.0367 62.0263 64.8319 62.0735 64.631 62.1321L64.3626 61.581C64.1901 61.193 63.8477 60.9107 63.4376 60.8122L62.733 60.6309C62.5201 60.5805 62.3007 60.5776 62.0899 60.6294C62.0899 60.6294 61.6199 60.7748 61.1541 60.8885C60.9216 60.9427 60.707 60.9833 60.5359 61.0191C60.4481 61.034 60.3417 61.0678 60.3139 61.0748C59.9835 61.0997 59.6764 61.2296 59.5045 61.351C59.2847 61.5088 59.185 61.6508 59.1047 61.7686C58.9441 62.0041 58.8782 62.1346 58.8199 62.2875C58.7093 62.5888 58.6557 62.8657 58.6557 62.8657L58.4401 63.8229C58.1817 63.8307 58.0841 63.8389 57.707 63.8521C57.4321 63.8631 57.185 63.8671 56.9318 63.8757C56.9035 63.8075 56.8983 63.8068 56.8647 63.7379C56.7861 63.5664 56.7128 63.3956 56.6328 63.2346C56.5527 63.0737 56.5532 63.0309 56.3166 62.72C55.9161 62.1939 55.656 62.1747 55.4586 62.0889C55.2611 62.0032 55.1331 61.959 55.1331 61.959C54.9591 61.8979 54.7696 61.8722 54.5856 61.8848C54.5856 61.8848 52.5585 62.087 52.3692 62.0988C52.0283 62.1223 51.6991 62.217 51.4334 62.3579C51.3009 62.4257 51.2021 62.482 51.1044 62.5706C51.0066 62.6592 50.8959 62.8426 50.8959 62.8426C50.878 62.8562 50.866 62.8653 50.8481 62.879C50.8481 62.879 50.6026 63.2263 50.3605 63.6278C50.2425 63.8262 50.1194 64.0615 50.0165 64.2673C49.9653 64.3676 49.9374 64.455 49.8865 64.5928C49.8784 64.6131 49.8832 64.6567 49.8751 64.677C49.6083 64.6677 49.5368 64.6419 49.1956 64.6278C48.8919 64.6134 48.6019 64.6169 48.3419 64.5978L48.4083 63.7919C48.4178 63.4447 48.2975 63.1067 48.065 62.8446C48.065 62.8446 47.7357 62.1888 46.7302 61.9345C46.4035 61.8527 46.2037 61.8631 45.8458 61.8145C45.4878 61.766 45.0779 61.705 44.6244 61.6489C43.7228 61.5373 42.7556 61.3954 42.4345 61.3519C41.9607 61.2876 41.5081 61.4621 41.2346 61.6609C40.961 61.8597 40.7889 62.0615 40.6856 62.2298C40.4746 62.5604 40.3837 62.8751 40.3837 62.8751C40.3617 62.9579 40.3503 63.0421 40.3494 63.1278C40.3494 63.1278 40.323 63.3225 40.3094 63.4226C40.0687 63.3792 40.055 63.3613 39.7676 63.3062C39.3704 63.2309 38.9665 63.1654 38.6363 63.1099C38.5317 63.0903 38.4566 63.0909 38.3836 63.0756C38.384 63.0328 38.3946 63.0342 38.395 62.9914C38.3816 62.6947 38.4114 62.2377 38.385 62.4325C38.455 61.9166 38.2152 61.4712 38.0339 61.2268C37.8526 60.9824 37.6855 60.8311 37.5435 60.7314C37.2589 60.5374 37.0246 60.4466 37.0246 60.4466C36.8604 60.3922 36.6919 60.3693 36.5192 60.3781C36.5192 60.3781 35.8961 60.3472 35.3821 60.2239C34.8267 60.0895 34.1878 60.0565 33.6347 60.4586C33.2655 60.7302 33.2901 61.0231 33.22 61.3031L33.0993 61.2438C33.0993 61.2438 32.9897 61.4595 32.9102 61.6899C32.6663 61.6301 32.567 61.6112 32.1635 61.5029C31.6358 61.3616 31.184 61.2146 30.8444 61.1095C30.9169 60.7334 31.0012 60.5464 31.0236 60.1045C31.0611 59.3537 30.5344 58.6121 30.1036 58.3499C29.7421 58.1294 29.5048 58.1401 29.4048 58.1265L29.4105 58.0844C29.4105 58.0844 29.2894 58.068 29.2841 58.0672C29.1645 58.0403 26.5932 57.4718 23.83 56.8557C22.4145 56.5405 20.9864 56.2395 19.8748 55.9762C19.3194 55.8419 18.8496 55.7085 18.5079 55.6193C18.337 55.5746 18.185 55.5487 18.0924 55.52C17.7358 55.343 17.166 55.196 16.6013 55.4465C16.0366 55.6969 15.7771 56.1871 15.689 56.4807C15.5737 56.8565 15.6343 56.9237 15.6512 57.076L15.609 57.0703L15.1921 60.1447C14.3393 60.029 11.9019 59.6985 10.6016 59.5221C10.6743 58.8672 10.7708 57.9582 10.7708 57.9582C10.7839 57.901 10.7911 57.8483 10.7937 57.7897C10.7937 57.7897 10.7308 57.1861 10.389 56.6626C10.0472 56.1391 9.3697 55.6398 8.49315 55.4619C7.59554 55.2812 6.71301 55.4242 6.15827 55.9172C5.64012 56.3777 5.58362 56.9919 5.57149 57.0814L5.52937 57.0757L5.51795 57.16C5.50652 57.2442 5.40371 58.0022 5.30661 58.7182C4.75145 58.6215 4.2633 58.5445 3.66986 58.4533L4.521 49.6478Z" fill="white"/>
</svg>
