<svg width="68" height="68" viewBox="0 0 68 68" fill="none" xmlns="http://www.w3.org/2000/svg">
<path d="M48.96 4.08008C46.7234 4.08008 44.88 5.92352 44.88 8.16008C44.88 8.81883 45.0659 9.43508 45.3475 9.98758L35.4025 17.5951L37.06 19.7626L47.345 11.9001C47.8443 12.1179 48.3862 12.2401 48.96 12.2401C49.284 12.2401 49.5922 12.187 49.895 12.1126L59.415 28.6876C58.8306 29.3941 58.48 30.3026 58.48 31.2801C58.48 31.9176 58.6393 32.5232 58.905 33.0651L50.575 44.0726L48.96 46.2401H61.2C63.4365 46.2401 65.28 44.3966 65.28 42.1601V34.2976C66.1087 33.5485 66.64 32.4754 66.64 31.2801C66.64 29.0435 64.7965 27.2001 62.56 27.2001C62.2784 27.2001 62.0181 27.232 61.7525 27.2851L52.19 10.6676C52.7265 9.97695 53.04 9.09508 53.04 8.16008C53.04 5.92352 51.1965 4.08008 48.96 4.08008ZM48.96 6.80008C49.725 6.80008 50.32 7.39508 50.32 8.16008C50.32 8.92508 49.725 9.52008 48.96 9.52008C48.195 9.52008 47.6 8.92508 47.6 8.16008C47.6 7.39508 48.195 6.80008 48.96 6.80008ZM21.76 16.3201C20.2725 16.3201 19.04 17.5526 19.04 19.0401V27.2001H10.88C8.64341 27.2001 6.79997 29.0435 6.79997 31.2801V38.0801C6.79997 40.3166 8.64341 42.1601 10.88 42.1601H14.96V44.8801H10.88C6.39091 44.8801 2.71997 48.551 2.71997 53.0401C2.71997 57.5291 6.39091 61.2001 10.88 61.2001H38.08C42.569 61.2001 46.24 57.5291 46.24 53.0401C46.24 48.551 42.569 44.8801 38.08 44.8801H34V42.1601H38.08C40.3165 42.1601 42.16 40.3166 42.16 38.0801V31.3226C42.16 30.1113 41.7562 28.9213 41.0125 27.9651L33.15 17.8926C32.3797 16.8991 31.2215 16.3201 29.9625 16.3201H21.76ZM21.76 19.0401H29.9625C30.3822 19.0401 30.7647 19.2207 31.025 19.5501L38.8875 29.6651C39.2487 30.1326 39.4293 30.6904 39.44 31.2801H23.885L21.76 28.0926V19.0401ZM10.88 29.9201H19.635L21.9725 33.4051L22.3975 34.0001H39.44V38.0801C39.44 38.8504 38.8503 39.4401 38.08 39.4401H10.88C10.1097 39.4401 9.51997 38.8504 9.51997 38.0801V31.2801C9.51997 30.5098 10.1097 29.9201 10.88 29.9201ZM62.56 29.9201C63.325 29.9201 63.92 30.5151 63.92 31.2801C63.92 32.0451 63.325 32.6401 62.56 32.6401C61.795 32.6401 61.2 32.0451 61.2 31.2801C61.2 30.5151 61.795 29.9201 62.56 29.9201ZM60.9025 34.9776C61.4125 35.2113 61.965 35.3601 62.56 35.3601V42.1601C62.56 42.9304 61.9703 43.5201 61.2 43.5201H54.4425L60.9025 34.9776ZM17.68 42.1601H31.28V44.8801H17.68V42.1601ZM10.88 47.6001H38.08C41.0975 47.6001 43.52 50.0226 43.52 53.0401C43.52 56.0576 41.0975 58.4801 38.08 58.4801H10.88C7.86247 58.4801 5.43997 56.0576 5.43997 53.0401C5.43997 50.0226 7.86247 47.6001 10.88 47.6001ZM10.88 50.3201C9.37653 50.3201 8.15997 51.5366 8.15997 53.0401C8.15997 54.5435 9.37653 55.7601 10.88 55.7601C12.3834 55.7601 13.6 54.5435 13.6 53.0401C13.6 51.5366 12.3834 50.3201 10.88 50.3201ZM19.04 50.3201C17.5365 50.3201 16.32 51.5366 16.32 53.0401C16.32 54.5435 17.5365 55.7601 19.04 55.7601C20.5434 55.7601 21.76 54.5435 21.76 53.0401C21.76 51.5366 20.5434 50.3201 19.04 50.3201ZM29.92 50.3201C28.4165 50.3201 27.2 51.5366 27.2 53.0401C27.2 54.5435 28.4165 55.7601 29.92 55.7601C31.4234 55.7601 32.64 54.5435 32.64 53.0401C32.64 51.5366 31.4234 50.3201 29.92 50.3201ZM38.08 50.3201C36.5765 50.3201 35.36 51.5366 35.36 53.0401C35.36 54.5435 36.5765 55.7601 38.08 55.7601C39.5834 55.7601 40.8 54.5435 40.8 53.0401C40.8 51.5366 39.5834 50.3201 38.08 50.3201Z" fill="white"/>
</svg>
