<svg width="54" height="52" viewBox="0 0 54 52" fill="none" xmlns="http://www.w3.org/2000/svg">
<path d="M18.0938 0.975586C17.0844 0.975586 16.3125 1.74746 16.3125 2.75684C16.3125 3.76621 17.0844 4.53809 18.0938 4.53809H35.9062C36.9156 4.53809 37.6875 3.76621 37.6875 2.75684C37.6875 1.74746 36.9156 0.975586 35.9062 0.975586H18.0938ZM8 6.49677C3.725 6.49677 0.28125 9.94052 0.28125 14.2155V43.7847C0.28125 48.0597 3.725 51.5035 8 51.5035H46C50.275 51.5035 53.7188 48.0597 53.7188 43.7847V14.2155C53.7188 9.94052 50.275 6.49677 46 6.49677H8ZM8 10.0593H46C48.3156 10.0593 50.1562 11.8999 50.1562 14.2155V43.7847C50.1562 46.1004 48.3156 47.941 46 47.941H8C5.68437 47.941 3.84375 46.1004 3.84375 43.7847V14.2155C3.84375 11.8999 5.68437 10.0593 8 10.0593ZM27 19.5001C25.3375 19.5001 24.0312 20.8064 24.0312 22.4689V26.7434H19.7567C18.0942 26.7434 16.788 28.0497 16.788 29.7122C16.788 31.3747 18.0942 32.6809 19.7567 32.6809H24.0312V36.9566C24.0312 38.6191 25.3375 39.9254 27 39.9254C28.6625 39.9254 29.9688 38.6191 29.9688 36.9566V32.6809H34.2433C35.9058 32.6809 37.212 31.3747 37.212 29.7122C37.212 28.0497 35.8464 26.7434 34.2433 26.7434H29.9688V22.4689C29.9688 20.8064 28.6625 19.5001 27 19.5001Z" fill="black"/>
</svg>
